<svg xmlns="http://www.w3.org/2000/svg" xmlns:xlink="http://www.w3.org/1999/xlink" viewBox="160.52040100097656 14.713321685791016 140.47560119628906 167.77825927734375" width="167.4538784719153" height="200"><path d="M 179.785,65.988 C 180.204,61.966 180.811,62.232 181.836,58.477" stroke-width="5.402" stroke="black" fill="none" stroke-linecap="round"></path><path d="M 181.836,58.477 C 184.371,53.792 184.054,53.733 187.484,49.523" stroke-width="3.884" stroke="black" fill="none" stroke-linecap="round"></path><path d="M 187.484,49.523 C 191.205,43.894 191.400,44.154 195.895,39.199" stroke-width="3.404" stroke="black" fill="none" stroke-linecap="round"></path><path d="M 195.895,39.199 C 203.134,31.945 203.043,32.044 211.160,25.824" stroke-width="3.537" stroke="black" fill="none" stroke-linecap="round"></path><path d="M 211.160,25.824 C 214.813,23.163 214.625,23.182 218.875,21.672" stroke-width="3.658" stroke="black" fill="none" stroke-linecap="round"></path><path d="M 218.875,21.672 C 222.369,20.722 222.188,20.456 225.910,20.410" stroke-width="3.816" stroke="black" fill="none" stroke-linecap="round"></path><path d="M 225.910,20.410 C 229.475,18.950 228.584,20.175 231.305,20.578" stroke-width="4.081" stroke="black" fill="none" stroke-linecap="round"></path><path d="M 231.305,20.578 C 236.335,25.570 235.778,24.558 238.516,31.625" stroke-width="4.061" stroke="black" fill="none" stroke-linecap="round"></path><path d="M 238.516,31.625 C 240.108,38.831 240.933,38.337 240.500,46.113" stroke-width="3.205" stroke="black" fill="none" stroke-linecap="round"></path><path d="M 240.500,46.113 C 241.401,55.705 241.008,55.562 240.316,65.086" stroke-width="2.801" stroke="black" fill="none" stroke-linecap="round"></path><path d="M 240.316,65.086 C 239.155,76.725 239.000,76.474 235.699,87.652" stroke-width="2.499" stroke="black" fill="none" stroke-linecap="round"></path><path d="M 235.699,87.652 C 231.413,99.941 231.817,99.926 225.641,111.488" stroke-width="2.244" stroke="black" fill="none" stroke-linecap="round"></path><path d="M 225.641,111.488 C 219.574,123.253 219.758,123.256 212.391,134.281" stroke-width="2.217" stroke="black" fill="none" stroke-linecap="round"></path><path d="M 212.391,134.281 C 206.396,143.302 206.516,143.300 199.523,151.582" stroke-width="2.395" stroke="black" fill="none" stroke-linecap="round"></path><path d="M 199.523,151.582 C 194.007,157.778 194.246,157.941 188.090,163.559" stroke-width="2.642" stroke="black" fill="none" stroke-linecap="round"></path><path d="M 188.090,163.559 C 183.739,167.881 183.732,167.815 178.973,171.656" stroke-width="3.056" stroke="black" fill="none" stroke-linecap="round"></path><path d="M 178.973,171.656 C 176.217,174.079 176.204,173.850 173.020,175.496" stroke-width="3.601" stroke="black" fill="none" stroke-linecap="round"></path><path d="M 173.020,175.496 C 167.653,178.855 169.917,176.872 166.371,177.242" stroke-width="4.293" stroke="black" fill="none" stroke-linecap="round"></path><path d="M 166.371,177.242 C 165.682,172.297 164.618,175.037 166.949,167.859" stroke-width="4.372" stroke="black" fill="none" stroke-linecap="round"></path><path d="M 166.949,167.859 C 168.948,162.010 168.584,162.133 172.176,156.914" stroke-width="3.479" stroke="black" fill="none" stroke-linecap="round"></path><path d="M 172.176,156.914 C 176.687,150.252 176.436,150.188 181.926,144.215" stroke-width="3.050" stroke="black" fill="none" stroke-linecap="round"></path><path d="M 181.926,144.215 C 188.314,137.208 188.124,137.072 195.051,130.555" stroke-width="2.702" stroke="black" fill="none" stroke-linecap="round"></path><path d="M 195.051,130.555 C 202.645,123.060 202.634,123.066 210.566,115.930" stroke-width="2.554" stroke="black" fill="none" stroke-linecap="round"></path><path d="M 210.566,115.930 C 217.776,109.166 217.889,109.339 225.539,103.113" stroke-width="2.589" stroke="black" fill="none" stroke-linecap="round"></path><path d="M 225.539,103.113 C 232.883,97.552 232.782,97.466 240.578,92.531" stroke-width="2.609" stroke="black" fill="none" stroke-linecap="round"></path><path d="M 240.578,92.531 C 247.828,87.874 247.779,87.833 255.332,83.676" stroke-width="2.737" stroke="black" fill="none" stroke-linecap="round"></path><path d="M 255.332,83.676 C 261.286,80.450 261.232,80.375 267.387,77.535" stroke-width="3.002" stroke="black" fill="none" stroke-linecap="round"></path><path d="M 267.387,77.535 C 271.772,75.491 271.745,75.452 276.250,73.680" stroke-width="3.388" stroke="black" fill="none" stroke-linecap="round"></path><path d="M 276.250,73.680 C 279.354,72.536 279.315,72.440 282.473,71.434" stroke-width="3.782" stroke="black" fill="none" stroke-linecap="round"></path><path d="M 282.473,71.434 C 285.078,70.571 285.059,70.519 287.660,69.645" stroke-width="4.099" stroke="black" fill="none" stroke-linecap="round"></path><path d="M 287.660,69.645 C 293.389,68.631 290.678,68.562 293.672,67.414" stroke-width="4.508" stroke="black" fill="none" stroke-linecap="round"></path><path d="M 293.672,67.414 C 290.830,64.275 293.913,66.377 288.707,65.137" stroke-width="5.056" stroke="black" fill="none" stroke-linecap="round"></path><path d="M 288.707,65.137 C 284.432,68.280 284.740,66.748 281.492,72.359" stroke-width="4.522" stroke="black" fill="none" stroke-linecap="round"></path><path d="M 281.492,72.359 C 279.297,76.234 278.948,75.889 277.738,80.355" stroke-width="3.854" stroke="black" fill="none" stroke-linecap="round"></path><path d="M 277.738,80.355 C 275.662,85.518 275.793,85.498 274.484,90.887" stroke-width="3.951" stroke="black" fill="none" stroke-linecap="round"></path><path d="M 274.484,90.887 C 273.099,97.961 272.949,97.889 272.313,105.098" stroke-width="3.595" stroke="black" fill="none" stroke-linecap="round"></path><path d="M 272.313,105.098 C 270.436,111.194 271.705,110.610 271.695,116.184" stroke-width="3.458" stroke="black" fill="none" stroke-linecap="round"></path><path d="M 271.695,116.184 C 273.523,120.125 272.498,119.364 276.438,121.438" stroke-width="4.204" stroke="black" fill="none" stroke-linecap="round"></path><path d="M 276.438,121.438 C 279.624,121.718 278.997,122.590 282.645,121.113" stroke-width="4.144" stroke="black" fill="none" stroke-linecap="round"></path><path d="M 282.645,121.113 C 286.376,120.289 286.301,120.382 289.793,118.766" stroke-width="3.970" stroke="black" fill="none" stroke-linecap="round"></path><path d="M 289.793,118.766 C 292.952,117.055 293.052,117.313 295.996,115.160" stroke-width="2.909" stroke="black" fill="none" stroke-linecap="round"></path></svg>